<?xml version="1.0" encoding="UTF-8" standalone="no"?>
<!-- Created with Inkscape (http://www.inkscape.org/) -->

<svg
   width="1500"
   height="300"
   viewBox="0 0 396.875 79.375"
   version="1.1"
   id="svg1"
   inkscape:version="1.3.2 (091e20e, 2023-11-25, custom)"
   sodipodi:docname="Logo 02.svg"
   xmlns:inkscape="http://www.inkscape.org/namespaces/inkscape"
   xmlns:sodipodi="http://sodipodi.sourceforge.net/DTD/sodipodi-0.dtd"
   xmlns="http://www.w3.org/2000/svg"
   xmlns:svg="http://www.w3.org/2000/svg">
  <sodipodi:namedview
     id="namedview1"
     pagecolor="#505050"
     bordercolor="#eeeeee"
     borderopacity="1"
     inkscape:showpageshadow="0"
     inkscape:pageopacity="0"
     inkscape:pagecheckerboard="0"
     inkscape:deskcolor="#505050"
     inkscape:document-units="px"
     inkscape:zoom="0.50394254"
     inkscape:cx="475.25259"
     inkscape:cy="273.84074"
     inkscape:window-width="1920"
     inkscape:window-height="991"
     inkscape:window-x="-9"
     inkscape:window-y="-9"
     inkscape:window-maximized="1"
     inkscape:current-layer="layer1" />
  <defs
     id="defs1" />
  <g
     inkscape:label="Layer 1"
     inkscape:groupmode="layer"
     id="layer1">
    <g
       id="g93"
       transform="matrix(6.619136,0,0,6.619136,-406.44131,-646.80138)">
      <g
         id="g1164"
         transform="matrix(0.98898696,0,0,0.98898696,211.06262,-83.21736)"
         style="fill:#ffffff">
        <path
           id="path1158"
           style="color:#000000;fill:#ffffff;fill-opacity:1"
           d="m 58.070284,241.14818 -2.77e-4,0.43182 5.6e-5,7.43353 7.863531,-7e-5 6.7e-5,-1.2418 -0.861486,8e-5 1.6e-5,0.38031 -6.140888,2.4e-4 3.84e-4,-6.14271 0.378817,-1.6e-4 -2.46e-4,-0.86116 z"
           transform="matrix(0.78813109,0.61550742,-0.78813109,0.61550742,0,0)"
           sodipodi:nodetypes="cccccccccccc" />
        <path
           style="color:#000000;fill:#ffffff;fill-opacity:1"
           d="m 62.046875,237.16992 v 0.43164 7.4336 h 7.865234 v -7.86524 z m 0.863281,0.86328 h 6.140625 v 6.14063 h -6.140625 z"
           id="path1160"
           transform="matrix(0.78813109,0.61550742,-0.78813109,0.61550742,0,0)" />
        <path
           id="path1162"
           style="color:#000000;fill:#ffffff;fill-opacity:1"
           d="m 59.794689,238.89652 1.95e-4,0.42967 9.7e-5,7.96075 8.392238,1.5e-4 2.09e-4,-1.76752 -0.863309,2.3e-4 -1.26e-4,0.90603 -6.667772,-1.3e-4 -1.29e-4,-6.66777 0.906028,-1.3e-4 8.2e-5,-0.86149 z m 3.599478,-2.2e-4 -8.2e-5,0.86149 3.930107,-6e-5 -2.03e-4,3.93193 0.863309,-2.3e-4 -4.3e-5,-4.79309 z"
           transform="matrix(0.78813109,0.61550742,-0.78813109,0.61550742,0,0)" />
      </g>
      <g
         id="g1196"
         transform="translate(445.50545,-502.16748)"
         style="fill:#00d6d6;fill-opacity:1">
        <g
           id="g1180"
           style="fill:#00d6d6;fill-opacity:1"
           transform="matrix(1.0962751,0,0,1.0962751,318.08928,232.08751)">
          <path
             id="path1166"
             style="color:#000000;-inkscape-font-specification:'Mandatory Plaything';fill:#00d6d6;fill-opacity:1;stroke-width:0.0396875"
             d="m -619.2423,337.44503 -0.6599,5.2e-4 v 0.0191 2.48047 0.61908 1.26194 h 0.6599 v -1.26194 -0.59945 h 2.75022 v 1.86139 h 0.65991 v -4.38113 h -0.65991 v 1.85984 h -2.75022 z" />
          <path
             id="path1168"
             style="color:#000000;-inkscape-font-specification:'Mandatory Plaything';fill:#00d6d6;fill-opacity:1;stroke-width:0.0396875"
             d="m -612.26753,337.28897 c -0.64753,0 -1.20231,0.2313 -1.66036,0.68936 -0.45601,0.456 -0.68523,1.00872 -0.68523,1.65623 0,0.64751 0.22924,1.20231 0.68523,1.66037 0.45806,0.45598 1.01285,0.68574 1.66036,0.68574 0.64751,0 1.20229,-0.22974 1.6583,-0.68574 0.45805,-0.45806 0.68729,-1.01284 0.68729,-1.66037 0,-0.64754 -0.22921,-1.20023 -0.68729,-1.65623 -0.456,-0.45809 -1.01077,-0.68936 -1.6583,-0.68936 z m 0,0.66042 c 0.46662,0 0.86372,0.16455 1.19321,0.49403 0.32948,0.32949 0.49248,0.72452 0.49248,1.19114 0,0.46662 -0.163,0.86425 -0.49248,1.19373 -0.32949,0.32949 -0.72659,0.49196 -1.19321,0.49196 -0.46662,0 -0.86218,-0.16247 -1.19166,-0.49196 -0.32949,-0.32948 -0.49402,-0.72711 -0.49402,-1.19373 0,-0.46662 0.16453,-0.86165 0.49402,-1.19114 0.32948,-0.32948 0.72504,-0.49403 1.19166,-0.49403 z" />
          <path
             id="path1170"
             style="color:#000000;-inkscape-font-specification:'Mandatory Plaything';fill:#00d6d6;fill-opacity:1;stroke-width:0.0396875"
             d="m -608.70289,337.44555 v 4.38061 h 0.65991 v -3.7207 h 2.15026 c 0.16687,0 0.30717,0.0571 0.42374,0.1757 0.11859,0.11658 0.17622,0.25687 0.17622,0.42374 0,0.16686 -0.0575,0.30715 -0.17622,0.42582 -0.11654,0.11654 -0.25679,0.17415 -0.42374,0.17415 h -2.03916 l 2.52181,2.52129 h 0.93535 l -1.85932,-1.86139 h 0.44132 c 0.3478,0 0.6478,-0.1238 0.89296,-0.36897 0.24516,-0.24516 0.36691,-0.54311 0.36691,-0.8909 0,-0.3478 -0.12175,-0.64521 -0.36691,-0.89038 -0.24516,-0.24516 -0.54516,-0.36897 -0.89296,-0.36897 z" />
          <path
             id="path1172"
             style="color:#000000;-inkscape-font-specification:'Mandatory Plaything';fill:#00d6d6;fill-opacity:1;stroke-width:0.0396875"
             d="m -603.33784,337.44555 v 4.38061 h 0.65836 v -0.0196 -4.36097 z" />
          <path
             id="path1174"
             style="color:#000000;-inkscape-font-specification:'Mandatory Plaything';fill:#00d6d6;fill-opacity:1;stroke-width:0.0396875"
             d="m -601.40049,337.44555 v 0.65991 h 2.9006 l -3.1564,3.7207 h 4.32635 v -0.65991 h -2.90266 l 3.15846,-3.7207 z" />
          <path
             id="path1176"
             style="color:#000000;-inkscape-font-specification:'Mandatory Plaything';fill:#00d6d6;fill-opacity:1;stroke-width:0.0396875"
             d="m -594.22264,337.28897 c -0.64752,0 -1.20231,0.2313 -1.66036,0.68936 -0.45601,0.456 -0.68316,1.00872 -0.68316,1.65623 0,0.64751 0.22717,1.20231 0.68316,1.66037 0.45806,0.45598 1.01286,0.68574 1.66036,0.68574 0.64751,0 1.20229,-0.22974 1.6583,-0.68574 0.45806,-0.45806 0.6873,-1.01284 0.6873,-1.66037 0,-0.64754 -0.22922,-1.20023 -0.6873,-1.65623 -0.456,-0.45809 -1.01076,-0.68936 -1.6583,-0.68936 z m 0,0.66042 c 0.46662,0 0.86373,0.16455 1.19321,0.49403 0.32949,0.32949 0.49248,0.72452 0.49248,1.19114 0,0.46662 -0.16299,0.86425 -0.49248,1.19373 -0.32948,0.32949 -0.72659,0.49196 -1.19321,0.49196 -0.46662,0 -0.86217,-0.16247 -1.19165,-0.49196 -0.32949,-0.32948 -0.49196,-0.72711 -0.49196,-1.19373 0,-0.46662 0.16247,-0.86165 0.49196,-1.19114 0.32948,-0.32948 0.72503,-0.49403 1.19165,-0.49403 z" />
          <path
             id="path1178"
             style="color:#000000;-inkscape-font-specification:'Mandatory Plaything';fill:#00d6d6;fill-opacity:1;stroke-width:0.0396875"
             d="m -590.65645,336.72828 v 0.0527 5.04517 h 0.65836 v -3.30057 l 3.4122,4.02301 v -5.10357 h -0.66043 v 3.29902 c -1.14795,-1.35176 -3.37654,-3.97443 -3.37654,-3.97443 z" />
        </g>
        <g
           id="g1194"
           transform="matrix(1.4475462,0,0,1.4475462,524.35474,111.08285)"
           style="fill:#00d6d6;fill-opacity:1">
          <path
             id="path1182"
             style="color:#000000;-inkscape-font-specification:'Capoon PERSONAL USE';fill:#00d6d6;fill-opacity:1;stroke-width:0.0264583"
             d="m -599.45746,343.66584 c -0.11201,2e-5 -0.21421,0.008 -0.30644,0.0274 -0.091,0.019 -0.16823,0.0465 -0.23409,0.0822 -0.0659,0.0357 -0.11823,0.0792 -0.15452,0.13075 -0.0365,0.0504 -0.0548,0.10907 -0.0548,0.17208 0,0.0672 0.0211,0.12308 0.0625,0.16588 0.042,0.042 0.0971,0.0743 0.16433,0.0977 0.0682,0.0232 0.14507,0.0391 0.23047,0.0486 0.0862,0.008 0.17481,0.0136 0.26769,0.0176 h 0.002 c 0.11794,0.004 0.21726,0.0123 0.29869,0.0217 0.0814,0.008 0.14774,0.0194 0.19741,0.0351 0.0498,0.0144 0.083,0.0324 0.10335,0.0527 0.0207,0.0206 0.031,0.0453 0.031,0.0744 0,0.0301 -0.012,0.0582 -0.0372,0.0858 -0.0236,0.0273 -0.0606,0.0516 -0.11317,0.0739 -0.0525,0.021 -0.11975,0.0394 -0.20102,0.0527 -0.081,0.0133 -0.17638,0.0196 -0.28732,0.0196 -0.16423,0 -0.30654,-0.019 -0.42582,-0.0548 -0.11826,-0.0359 -0.21827,-0.0851 -0.29869,-0.14831 l -0.01,-0.008 -0.11162,0.16795 0.008,0.008 c 0.0916,0.0738 0.20673,0.13157 0.34365,0.17363 0.13865,0.0435 0.30365,0.0646 0.49403,0.0646 h 0.014 v -0.002 c 0.12354,-8.2e-4 0.23473,-0.0102 0.33383,-0.031 v 0.002 c 0.10431,-0.0203 0.19301,-0.0493 0.26562,-0.0863 0.0739,-0.0383 0.1317,-0.0862 0.17208,-0.14056 0.0404,-0.0558 0.0605,-0.11632 0.0605,-0.18345 0,-0.0625 -0.0131,-0.11689 -0.0429,-0.16226 -0.0286,-0.0472 -0.0766,-0.0865 -0.14263,-0.11679 -0.0648,-0.0303 -0.15024,-0.0524 -0.2558,-0.0687 -0.10558,-0.0176 -0.23582,-0.0297 -0.39067,-0.0351 -0.0696,-10e-4 -0.13737,-0.004 -0.20154,-0.01 -0.0641,-0.005 -0.1211,-0.0124 -0.17157,-0.0217 -0.0482,-0.0104 -0.086,-0.0242 -0.11523,-0.0393 -0.027,-0.016 -0.0393,-0.0323 -0.0393,-0.0543 0,-0.0302 0.0115,-0.0574 0.0351,-0.0822 0.0252,-0.0264 0.0605,-0.0499 0.10749,-0.0682 0.0471,-0.0196 0.10592,-0.0344 0.17363,-0.045 0.0691,-0.0106 0.14435,-0.0155 0.22841,-0.0155 0.0586,0 0.11778,0.003 0.17777,0.01 0.0613,0.007 0.11969,0.0162 0.17415,0.0295 0.0558,0.0133 0.10621,0.0308 0.15244,0.0506 h 0.002 c 0.0475,0.0185 0.0877,0.0398 0.12144,0.0646 l 0.0114,0.008 0.11524,-0.16795 -0.01,-0.008 c -0.0414,-0.0318 -0.091,-0.0591 -0.14831,-0.0822 -0.0571,-0.0231 -0.11836,-0.0419 -0.18345,-0.0568 -0.0651,-0.0163 -0.13271,-0.0286 -0.20309,-0.0367 -0.0701,-0.008 -0.13993,-0.0119 -0.20877,-0.0119 z" />
          <path
             id="path1184"
             style="color:#000000;-inkscape-font-specification:'Capoon PERSONAL USE';fill:#00d6d6;fill-opacity:1;stroke-width:0.0264583"
             d="m -597.44724,343.49221 v 0.26561 h -0.22841 v 0.20723 h 0.22841 v 0.63045 c 0,0.13282 0.0394,0.24043 0.1173,0.31833 0.0793,0.0766 0.1886,0.11368 0.32401,0.11368 0.0776,0 0.17702,-0.0205 0.29869,-0.0625 l 0.0103,-0.004 -0.0512,-0.20309 -0.0134,0.004 c -0.11495,0.0415 -0.19703,0.0625 -0.24443,0.0625 -0.0755,0 -0.13215,-0.0199 -0.17363,-0.0589 -0.0415,-0.0402 -0.0625,-0.0961 -0.0625,-0.17001 v -0.63045 h 0.52555 v -0.014 -0.19327 h -0.52555 v -0.26561 z" />
          <path
             id="path1186"
             style="color:#000000;-inkscape-font-specification:'Capoon PERSONAL USE';fill:#00d6d6;fill-opacity:1;stroke-width:0.0264583"
             d="m -595.73417,343.72837 v 0.64079 c 0,0.21238 0.07,0.3777 0.20877,0.49041 0.13725,0.11035 0.33247,0.16162 0.57826,0.16381 v 0.004 h 0.0114 c 0.11812,0 0.23259,-0.0166 0.34003,-0.0506 0.0987,-0.0312 0.17668,-0.0757 0.24391,-0.12919 v 0.11524 h 0.20154 v -1.23455 h -0.20154 v 0.88522 c -0.0547,0.0683 -0.12526,0.12164 -0.21652,0.15813 -0.0922,0.0356 -0.2011,0.0527 -0.32608,0.0527 -0.20782,0 -0.36455,-0.0411 -0.47284,-0.11938 -0.1083,-0.0783 -0.16226,-0.18873 -0.16226,-0.33589 v -0.64079 z" />
          <path
             id="path1188"
             style="color:#000000;-inkscape-font-specification:'Capoon PERSONAL USE';fill:#00d6d6;fill-opacity:1;stroke-width:0.0264583"
             d="m -591.80263,343.49221 v 0.36535 c -0.026,-0.0262 -0.0531,-0.0516 -0.0899,-0.0723 h -0.002 c -0.0448,-0.0256 -0.0944,-0.0492 -0.14831,-0.0667 -0.0532,-0.0178 -0.11016,-0.0307 -0.17002,-0.0388 -0.0583,-0.009 -0.11489,-0.014 -0.17208,-0.014 -0.1154,0 -0.22169,0.0163 -0.31988,0.0491 -0.0968,0.0314 -0.18305,0.0761 -0.25425,0.13643 -0.0713,0.0589 -0.12618,0.13138 -0.16588,0.21497 -0.0398,0.0838 -0.0584,0.17663 -0.0584,0.27905 0,0.10112 0.0186,0.19445 0.0584,0.27957 0.0397,0.0836 0.0947,0.15627 0.16588,0.21653 0.0712,0.0588 0.15544,0.10418 0.25218,0.13694 h 0.002 c 0.094,0.0313 0.19665,0.0456 0.30644,0.047 v 0.002 h 0.014 c 0.1248,0 0.23694,-0.0173 0.33796,-0.0527 0.094,-0.0326 0.17267,-0.0828 0.24391,-0.14107 v 0.12919 h 0.20102 v -1.47071 z m -0.54105,0.37517 c 0.12222,0 0.22979,0.0195 0.32194,0.0563 0.0921,0.0363 0.16454,0.0882 0.21911,0.15451 v 0.53485 c -0.0546,0.0677 -0.12632,0.12185 -0.21704,0.15813 -0.0922,0.0356 -0.20038,0.0527 -0.32401,0.0527 -0.0957,0 -0.18273,-0.0107 -0.262,-0.0331 -0.078,-0.0238 -0.1447,-0.0577 -0.20102,-0.0997 -0.055,-0.0419 -0.0972,-0.0918 -0.12713,-0.15038 -0.0299,-0.0585 -0.045,-0.12327 -0.045,-0.19534 0,-0.0706 0.015,-0.13467 0.045,-0.19326 0.03,-0.0586 0.0722,-0.10848 0.12713,-0.15038 0.0563,-0.0432 0.12317,-0.0772 0.20102,-0.0997 0.0792,-0.0238 0.1664,-0.0346 0.262,-0.0346 z" />
          <path
             id="path1190"
             style="color:#000000;-inkscape-font-specification:'Capoon PERSONAL USE';fill:#00d6d6;fill-opacity:1;stroke-width:0.0264583"
             d="m -590.63474,343.49221 v 0.0134 0.15452 h 0.20722 v -0.16795 z m 0,0.24236 v 0.0134 1.21491 h 0.20722 v -1.22835 z" />
          <path
             id="path1192"
             style="color:#000000;-inkscape-font-specification:'Capoon PERSONAL USE';fill:#00d6d6;fill-opacity:1;stroke-width:0.0264583"
             d="m -588.62298,343.66584 c -0.12471,0 -0.23857,0.0164 -0.3421,0.0491 -0.10154,0.0312 -0.18984,0.0767 -0.26355,0.13643 -0.074,0.0589 -0.13252,0.13132 -0.17363,0.21497 -0.0398,0.0838 -0.0605,0.17714 -0.0605,0.27957 0,0.10112 0.0207,0.19395 0.0605,0.27905 0.0411,0.0836 0.0976,0.15685 0.17157,0.21705 h 0.002 c 0.0739,0.0588 0.16204,0.10373 0.26407,0.13642 0.10353,0.0327 0.21687,0.0491 0.34158,0.0491 0.12471,0 0.23805,-0.0165 0.34158,-0.0491 0.10338,-0.0327 0.19373,-0.0776 0.26769,-0.13642 0.074,-0.0603 0.13024,-0.13336 0.17001,-0.21705 0.0412,-0.0851 0.0625,-0.17787 0.0625,-0.27905 0,-0.10249 -0.0213,-0.19573 -0.0625,-0.27957 -0.0398,-0.0837 -0.096,-0.15605 -0.17001,-0.21497 -0.074,-0.0603 -0.16421,-0.10513 -0.26769,-0.13643 -0.10354,-0.0327 -0.21687,-0.0491 -0.34158,-0.0491 z m 0,0.20154 c 0.0956,0 0.18214,0.0114 0.25993,0.0351 0.0792,0.0224 0.14617,0.0561 0.20103,0.0992 0.0563,0.0419 0.0988,0.0918 0.12867,0.15038 h 0.002 c 0.0312,0.0585 0.045,0.12321 0.045,0.19378 0,0.0719 -0.0139,0.13632 -0.045,0.19482 h -0.002 c -0.03,0.0586 -0.0725,0.10899 -0.12867,0.1509 -0.0549,0.0418 -0.1217,0.0754 -0.20103,0.0992 -0.0779,0.0224 -0.16427,0.0336 -0.25993,0.0336 -0.0957,0 -0.18207,-0.0112 -0.25993,-0.0336 -0.078,-0.0238 -0.14467,-0.0572 -0.20102,-0.0992 -0.055,-0.0419 -0.0972,-0.0923 -0.12713,-0.1509 -0.0299,-0.0585 -0.0449,-0.12279 -0.0449,-0.19482 0,-0.0706 0.015,-0.13522 0.0449,-0.19378 0.03,-0.0586 0.0722,-0.10848 0.12713,-0.15038 0.0563,-0.0432 0.12314,-0.0767 0.20102,-0.0992 0.0778,-0.0238 0.16434,-0.0351 0.25993,-0.0351 z" />
        </g>
      </g>
    </g>
  </g>
</svg>
